<svg version="1.1" xmlns="http://www.w3.org/2000/svg" xmlns:xlink="http://www.w3.org/1999/xlink" x="0px" y="0px" viewBox="0 0 1000 1000" enable-background="new 0 0 1000 1000" xml:space="preserve">
    <metadata> Svg Vector Icons : http://www.onlinewebfonts.com/icon </metadata>
    <g><path d="M990,900.9h-29.7c-86.1-172.6-259.4-291.8-460.3-297c-200.9,5.1-374.2,124.4-460.3,297c4.9,0-29.7,0-29.7,0c73.5-168.1,228.5-291.2,415.8-311.8c-96-41-163.6-132.6-163.3-237.6C262.2,210.8,372.3,99.1,514.8,99.1c129.2,0,239.4,111.7,237.6,252.4c1.8,106.9-68.1,199.9-163.3,237.6C767.8,614.9,918,736.3,990,900.9L990,900.9z M722.7,351.5c0-123-96.4-222.7-222.7-222.7c-111.5,0-207.9,99.7-207.9,222.7c0,123,96.4,222.7,207.9,222.7C626.3,574.2,722.7,474.5,722.7,351.5L722.7,351.5z"/></g>
    </svg>